<svg xmlns="http://www.w3.org/2000/svg" width="17.784" height="17.725" viewBox="0 0 17.784 17.725"><defs><style>.a{fill:#ffffff;}</style></defs><g transform="translate(-357 -416.574)"><g transform="translate(357 415.724)"><g transform="translate(0 0.85)"><path class="a" d="M8.863,17.1H2.216a.739.739,0,0,1-.739-.739V3.066a.739.739,0,0,1,.739-.739H8.863a.739.739,0,0,0,0-1.477H2.216A2.218,2.218,0,0,0,0,3.066V16.359a2.218,2.218,0,0,0,2.216,2.216H8.863a.739.739,0,0,0,0-1.477Z" transform="translate(0 -0.85)"/></g><g transform="translate(5.908 4.543)"><path class="a" d="M181.756,111.809l-4.49-4.431a.738.738,0,0,0-1.037,1.052l3.209,3.167h-8.6a.739.739,0,0,0,0,1.477h8.6l-3.209,3.167a.738.738,0,1,0,1.037,1.052l4.49-4.431a.738.738,0,0,0,0-1.052Z" transform="translate(-170.1 -107.165)"/></g></g></g></svg>