<svg xmlns="http://www.w3.org/2000/svg" width="104.54" height="42.999" viewBox="0 0 104.54 42.999"><defs><style>.a{fill:#fff;}</style></defs><path class="a" d="M639,46.5A21.654,21.654,0,1,1,660.654,68,21.6,21.6,0,0,1,639,46.5Zm1.792,0a19.862,19.862,0,1,0,19.862-19.72A19.792,19.792,0,0,0,640.792,46.5ZM643.67,54c4.42-.132,8.968-.162,12.808-.167q4.176-.007,8.35,0c3.841.005,8.388.035,12.809.167a18.625,18.625,0,0,1-33.967,0Zm60.676,10.913a3.866,3.866,0,0,1-3.757-3.938V41.12a3.866,3.866,0,0,1,3.757-3.938h5.183a3.866,3.866,0,0,1,3.756,3.938V60.979a3.866,3.866,0,0,1-3.756,3.938Zm.053-3.273h5.13V40.455H704.4Zm35.332,2.94V53.824h-4.971V64.585H731V41.12a3.866,3.866,0,0,1,3.757-3.938h5.024a3.866,3.866,0,0,1,3.756,3.938V64.585ZM734.761,50.44h4.971V40.455h-4.971ZM719.528,64.585a3.823,3.823,0,0,1-3.7-3.938V52.935h3.492v8.376h4.761V40.455h-3.968V37.182h7.722V60.646a3.864,3.864,0,0,1-3.754,3.938Zm-30.892,0V28.029H692.5V61.2h6.188v3.384ZM651.187,53.057c1.231-2.444,3.395-3.117,6.026-3.859l-6.775-10.569a.947.947,0,0,1,.287-1.311.989.989,0,0,1,1.323.279L659.2,48.748a10.5,10.5,0,0,1,1.456-.1,10.742,10.742,0,0,1,1.326.085l7.265-11.086a.986.986,0,0,1,1.285-.342.952.952,0,0,1,.374,1.29l-.029.049-6.893,10.507c2.681.68,4.889,1.43,6.139,3.91Zm-5.075-18.07a18.585,18.585,0,0,1,9.695-6.3V41.029L653.156,36.9a2.315,2.315,0,0,0-1.927-1.028,2.248,2.248,0,0,0-2.206,1.775,2.221,2.221,0,0,0,.313,1.7l5.837,9.106a8.111,8.111,0,0,0-5.161,4.028l-.05.1c-1.252.015-2.545.037-3.85.065Zm25.233,17.586-.05-.1a8.111,8.111,0,0,0-5.24-4.1l5.92-9.023.016-.025.015-.026.03-.049.01-.016.009-.017a2.248,2.248,0,0,0-1.975-3.334,2.3,2.3,0,0,0-1.948,1.063L665.5,40.963V28.711a18.584,18.584,0,0,1,9.613,6.276V52.636C673.835,52.609,672.571,52.587,671.345,52.573Z" transform="translate(-639 -25)"/></svg>